# xmcd
#
# Track frame offsets: 
#        150
#        15930
#        37488
#        63138
#        75208
#
# Disc length: 1380 seconds
#
# Revision: 0
# Processed by: cddbd v1.5.2PL0 Copyright (c) Steve Scherf et al.
# Submitted via: ExactAudioCopyFreeDBPlugin 1.0
#
DISCID=2d056205
DTITLE=Eastern, The - Crow River
DYEAR=2008
DGENRE=New Zealand: Country/Blues
TTITLE0=Crow River
TTITLE1=This is the Always
TTITLE2=Southern Girl
TTITLE3=Make Sure It Ends
TTITLE4=Thank You (For Das)
EXTD=
EXTT0=
EXTT1=
EXTT2=
EXTT3=
EXTT4=
PLAYORDER=
